Coordinates
version=1
nRows=24
nColumns=24
inDegrees=yes

Units are S.I. units (second, meters, Newtons, ...)
Angles are in degrees.

endheader
time	pelvis_tilt	pelvis_list	pelvis_rotation	pelvis_tx	pelvis_ty	pelvis_tz	hip_flexion_r	hip_adduction_r	hip_rotation_r	knee_angle_r	ankle_angle_r	subtalar_angle_r	mtp_angle_r	hip_flexion_l	hip_adduction_l	hip_rotation_l	knee_angle_l	ankle_angle_l	subtalar_angle_l	mtp_angle_l	lumbar_extension	lumbar_bending	lumbar_rotation
      2.34500000	     -7.16364848	     -0.99076036	      1.60102458	      0.48048753	      1.22456348	     -0.83091733	      2.78672426	      6.80097297	     -4.10045202	    -35.19970866	      5.41553643	      2.06602085	     23.56872925	     30.26988075	      8.18653753	     11.76925579	    -19.51134271	    -10.54830655	     -9.48499274	      7.19732065	     -4.24332173	     -0.86528390	      1.73405837
      2.35000000	     -7.07111245	     -0.71486850	      1.78922709	      0.48656596	      1.22518255	     -0.83128209	      3.61210721	      6.17242788	     -4.91799858	    -37.26461871	      3.96168559	      2.12812758	     24.84604285	     29.84019249	      8.61460841	     11.92562809	    -19.81554849	    -10.39256555	     -9.54877916	      7.11800185	     -4.26651945	     -1.28489726	      1.59321316
      2.35500000	     -6.98902977	     -0.43430269	      1.97856815	      0.49262306	      1.22579208	     -0.83166540	      4.46463509	      5.51708441	     -5.67785595	    -39.28997679	      2.38531389	      2.11557949	     25.89918622	     29.37529981	      9.04364368	     12.08563427	    -20.03923595	    -10.20849142	     -9.63517456	      7.06148037	     -4.28126340	     -1.70046202	      1.45896912
      2.36000000	     -6.88483999	     -0.14130304	      2.15920318	      0.49867909	      1.22645342	     -0.83203048	      5.29098029	      4.83860607	     -6.35554826	    -41.23425369	      0.76103956	      2.05070044	     26.91070446	     28.82052233	      9.46699079	     12.22503972	    -20.15153672	    -10.00654746	     -9.72283680	      6.99987149	     -4.31113058	     -2.12487536	      1.34816592
      2.36500000	     -6.80884797	      0.14642253	      2.36459272	      0.50467881	      1.22705450	     -0.83242567	      6.15675850	      4.15478399	     -6.99095718	    -43.12909708	     -0.91297817	      1.93627866	     27.30220812	     28.28088684	      9.89199775	     12.39172250	    -20.23020813	     -9.75905041	     -9.71953172	      7.02999026	     -4.32269876	     -2.54017746	      1.19815650
      2.37000000	     -6.78841547	      0.40322514	      2.55936703	      0.51064358	      1.22758772	     -0.83284701	      7.09683044	      3.50696724	     -7.53964145	    -44.95488903	     -2.54349068	      1.60923727	     27.59452858	     27.78955834	     10.28542726	     12.55011074	    -20.28789898	     -9.46885857	     -9.84921457	      7.01385573	     -4.27286568	     -2.90828627	      1.05966032
      2.37500000	     -6.75745559	      0.65504141	      2.75269928	      0.51656616	      1.22815780	     -0.83324645	      8.01387185	      2.87675838	     -8.00354219	    -46.67468680	     -4.07780282	      1.23055363	     27.63404654	     27.24553815	     10.65612144	     12.70527603	    -20.26731768	     -9.18359039	     -9.91414763	      7.02261115	     -4.23706399	     -3.27106067	      0.92013598
      2.38000000	     -6.71314997	      0.88816988	      2.93649134	      0.52242865	      1.22875088	     -0.83362747	      8.90556488	      2.28676351	     -8.38402916	    -48.29050019	     -5.54955305	      0.82371101	     27.02568566	     26.66132166	     10.98900729	     12.84549942	    -20.19471767	     -8.86366090	     -9.93813102	      7.05348670	     -4.22196302	     -3.60739746	      0.79558182
      2.38500000	     -6.71338285	      1.09365902	      3.12547422	      0.52822010	      1.22928951	     -0.83401790	      9.85298409	      1.74114887	     -8.70753602	    -49.81782152	     -6.70886504	      0.24191755	     26.64732514	     26.13828481	     11.29291065	     12.97469568	    -20.13511517	     -8.51290941	     -9.93515019	      7.11072303	     -4.17153247	     -3.90934657	      0.63584022
      2.39000000	     -6.70278947	      1.27225501	      3.29404682	      0.53393813	      1.22986481	     -0.83436998	     10.78039819	      1.25910246	     -8.94386948	    -51.23007641	     -7.73876076	     -0.40828337	     25.76683336	     25.59052991	     11.54386045	     13.07127354	    -20.04055642	     -8.12894480	     -9.86929672	      7.18553180	     -4.14079665	     -4.17641381	      0.49916406
      2.39500000	     -6.65108379	      1.42979944	      3.46459971	      0.53961380	      1.23051046	     -0.83473672	     11.63529212	      0.81142294	     -9.14970124	    -52.51453903	     -8.54579793	     -0.87271937	     24.35991147	     24.97104499	     11.75746684	     13.17399495	    -19.89447298	     -7.70005658	     -9.67018858	      7.27407988	     -4.15484906	     -4.41125019	      0.37275172
      2.40000000	     -6.63315781	      1.55507541	      3.62026395	      0.54519829	      1.23112694	     -0.83507888	     12.53588466	      0.43103676	     -9.29132935	    -53.69502524	     -9.03796336	     -1.54721500	     23.23159533	     24.41153827	     11.92928607	     13.25094413	    -19.77561965	     -7.26553852	     -9.49281093	      7.35469451	     -4.14938278	     -4.60575002	      0.23303629
      2.40500000	     -6.62531398	      1.64910770	      3.76054885	      0.55072357	      1.23175472	     -0.83540911	     13.44231325	      0.11126299	     -9.38307211	    -54.75482750	     -9.28738025	     -2.25944055	     22.06707419	     23.86900421	     12.05638640	     13.31511159	    -19.65664013	     -6.81215410	     -9.27950460	      7.44247648	     -4.13619934	     -4.75783909	      0.10654674
      2.41000000	     -6.63117583	      1.70945365	      3.88492036	      0.55614058	      1.23236158	     -0.83573721	     14.37223675	     -0.14844334	     -9.43317905	    -55.70497205	     -9.32429284	     -3.05006297	     21.03760505	     23.37025672	     12.14527299	     13.37422702	    -19.57410346	     -6.34407608	     -9.07841265	      7.53684920	     -4.12457231	     -4.86622256	      0.02430898
      2.41500000	     -6.65250989	      1.75162310	      3.98395965	      0.56153478	      1.23298434	     -0.83600304	     15.31051491	     -0.35056759	     -9.41874726	    -56.52826257	     -9.15535105	     -3.83438103	     19.99211601	     22.88562954	     12.19137090	     13.37632156	    -19.47182013	     -5.89008331	     -8.83525357	      7.62380498	     -4.10370027	     -4.94525635	     -0.13257621
      2.42000000	     -6.65241647	      1.77110802	      4.07626994	      0.56684460	      1.23362187	     -0.83627478	     16.21647693	     -0.51633113	     -9.39959184	    -57.23155523	     -8.80711114	     -4.57120377	     18.88072442	     22.38913607	     12.21012839	     13.39676480	    -19.37973463	     -5.40715956	     -8.54324445	      7.71041630	     -4.11748675	     -4.99328301	     -0.25253895
      2.42500000	     -6.66431761	      1.76921663	      4.15461487	      0.57209891	      1.23424706	     -0.83653022	     17.13021409	     -0.63546775	     -9.34745059	    -57.80997452	     -8.30520751	     -5.28579510	     17.87527710	     21.91940096	     12.20318978	     13.41534685	    -19.30201351	     -4.92759027	     -8.26658137	      7.77613779	     -4.12982295	     -5.00448647	     -0.36307334
      2.43000000	     -6.66519871	      1.73600403	      4.21693922	      0.57729576	      1.23488013	     -0.83678464	     18.01905666	     -0.69845137	     -9.27508606	    -58.25517248	     -7.68257307	     -5.95261671	     16.85835035	     21.45467557	     12.16198419	     13.45158834	    -19.24920914	     -4.42170441	     -7.97507845	      7.82136729	     -4.15410856	     -4.97409969	     -0.42110550
      2.43500000	     -6.70463924	      1.71060639	      4.25864811	      0.58246305	      1.23545338	     -0.83698253	     18.95602738	     -0.75033994	     -9.16340091	    -58.60484907	     -6.96271455	     -6.60334408	     16.06243492	     21.03893511	     12.11833382	     13.43823708	    -19.18904071	     -3.98642778	     -7.73893600	      7.86810795	     -4.15623174	     -4.94716934	     -0.54943645
      2.44000000	     -6.73568467	      1.65969989	      4.28435869	      0.58758664	      1.23602267	     -0.83716458	     19.86709611	     -0.75116098	     -9.03534194	    -58.82304199	     -6.17694808	     -7.18670944	     15.21685438	     20.63278621	     12.04623470	     13.43625361	    -19.15906163	     -3.51539302	     -7.47203354	      7.90933705	     -4.16663981	     -4.88409820	     -0.63831742
      2.44500000	     -6.77075185	      1.60005985	      4.29586927	      0.59268692	      1.23655896	     -0.83732537	     20.76917162	     -0.72517804	     -8.88815818	    -58.92406577	     -5.33476779	     -7.69345145	     14.45291318	     20.23781966	     11.96389745	     13.43561874	    -19.13514393	     -3.05554541	     -7.24859621	      7.92169059	     -4.17926275	     -4.80357577	     -0.71102524
      2.45000000	     -6.76495063	      1.53008584	      4.31456907	      0.59774985	      1.23712187	     -0.83753527	     21.59267292	     -0.69050057	     -8.76652526	    -58.87666601	     -4.39771099	     -8.16580125	     14.10807502	     19.78176721	     11.88314671	     13.51435039	    -19.07748937	     -2.71043553	     -7.21951497	      7.94499132	     -4.24239757	     -4.69210982	     -0.76905232
      2.45500000	     -6.88102228	      1.46691450	      4.27235424	      0.60280795	      1.23749412	     -0.83755603	     22.58327316	     -0.59896696	     -8.52285736	    -58.79732688	     -3.57382767	     -8.49757524	     13.18109488	     19.52587029	     11.77979375	     13.41593564	    -19.12512264	     -2.18400315	     -6.88316372	      7.97000594	     -4.18322978	     -4.61181404	     -0.85224324
      2.46000000	     -6.87495616	      1.38130046	      4.26329921	      0.60784089	      1.23800165	     -0.83768970	     23.36512485	     -0.50250575	     -8.36449680	    -58.51457967	     -2.66904943	     -8.87578061	     12.86027595	     19.07926191	     11.67485699	     13.49805970	    -19.07657039	     -1.84062882	     -6.88424886	      7.96637067	     -4.25584447	     -4.48053175	     -0.90202865
